<?xml version="1.0" encoding="utf-8"?>
<!-- Generator: Adobe Illustrator 24.1.0, SVG Export Plug-In . SVG Version: 6.00 Build 0)  -->
<svg version="1.1" id="Layer_1" xmlns="http://www.w3.org/2000/svg" xmlns:xlink="http://www.w3.org/1999/xlink" x="0px" y="0px"
	 viewBox="0 0 288 288" style="enable-background:new 0 0 288 288;" xml:space="preserve">
<style type="text/css">
	.st0{fill:#A80000;}
</style>
<path class="st0" d="M252.6,74c-14.7-11.7-30.1-22.5-46.2-32.3l-10.8,11.8c15.7,10.1,35.9,24.7,45.7,34L252.6,74z M141.1,93.4h56.7
	v46.7h-56.7V93.4z M215.7,140.1V76.1h-74.7V35.3h-18.2v40.9H51.7v17.2h71.2v46.7H35.4v17h87.4v95.7h18.2V157h90.6
	c-3,34.7-6.4,49.8-11.1,53.8c-2.7,2.1-5.4,2.5-10.3,2.5c-5.9,0-21.4,0-36.9-1.4c3.3,5.1,5.4,10.9,5.9,17c15.2,0.7,30,1,37.3,0.5
	c8.3-0.5,14-2.1,19.2-7.2c7.1-7.2,10.8-26.1,14.5-73.7c0.4-2.8,0.6-5.6,0.7-8.4L215.7,140.1z"/>
</svg>
